<?xml version="1.0" standalone="no"?>
<!DOCTYPE svg PUBLIC "-//W3C//DTD SVG 20010904//EN"
 "http://www.w3.org/TR/2001/REC-SVG-20010904/DTD/svg10.dtd">
<svg version="1.0" xmlns="http://www.w3.org/2000/svg"
 width="16.000000pt" height="16.000000pt" viewBox="0 0 16.000000 16.000000"
 preserveAspectRatio="xMidYMid meet">
<metadata>
Created by potrace 1.11, written by Peter Selinger 2001-2013
</metadata>
<g transform="translate(0.000000,16.000000) scale(0.005161,-0.005161)"
fill="#000000" stroke="none">
<path d="M1085 3068 c-272 -34 -536 -194 -700 -423 -127 -177 -190 -367 -199
-596 -2 -47 -8 -95 -14 -105 -11 -22 -48 -152 -58 -204 -54 -301 8 -554 177
-721 50 -50 114 -95 198 -140 39 -22 48 -34 92 -129 169 -365 403 -622 638
-700 123 -41 316 -33 465 19 203 71 435 260 578 471 47 69 61 81 124 114 387
199 682 734 607 1099 -20 97 -59 172 -123 237 l-55 57 27 79 c73 215 47 372
-77 463 -22 16 -94 48 -160 71 -218 76 -255 95 -315 156 -160 164 -389 264
-590 258 -96 -2 -129 -7 -187 -28 -23 -8 -43 -12 -46 -10 -3 3 -36 12 -74 20
-83 17 -226 23 -308 12z m294 -29 l64 -12 -34 -18 c-19 -10 -52 -21 -74 -24
-407 -68 -846 -412 -1074 -840 l-32 -60 6 60 c32 301 202 579 458 748 204 135
450 187 686 146z m511 -36 c89 -21 211 -81 293 -143 38 -29 67 -54 64 -56 -3
-4 -109 36 -192 71 -92 40 -306 97 -408 110 -21 3 -46 9 -55 14 -13 7 -9 10
18 15 19 3 46 7 60 10 40 6 150 -4 220 -21z m-158 -89 c80 -41 321 -194 315
-200 -1 -1 -33 8 -72 21 -116 39 -246 57 -415 59 -85 0 -182 -2 -215 -6 -72
-8 -207 -35 -242 -49 -57 -21 -34 2 84 84 77 54 221 130 271 142 77 20 169 3
274 -51z m-462 23 c-66 -35 -221 -150 -298 -222 -44 -40 -126 -92 -192 -121
-334 -145 -473 -394 -426 -764 5 -36 10 -114 12 -175 2 -104 6 -159 19 -265 4
-38 0 -31 -31 50 -63 168 -113 381 -117 495 -2 62 2 78 33 140 156 316 399
580 683 743 112 64 271 128 327 131 8 0 4 -5 -10 -12z m617 -31 c65 -19 183
-60 263 -90 133 -51 149 -59 187 -103 55 -63 127 -182 163 -273 40 -96 80
-250 66 -250 -3 0 -28 35 -57 78 -172 256 -440 494 -725 641 -92 49 -74 48
103 -3z m-63 -171 c146 -31 258 -89 359 -186 l62 -60 -65 35 c-116 63 -275
113 -416 132 -27 3 -57 8 -66 9 -68 13 -179 20 -333 20 -164 0 -220 -3 -325
-20 l-35 -5 35 16 c49 23 209 62 283 70 34 3 64 8 67 11 12 11 362 -6 434 -22z
m711 -62 c185 -62 242 -106 280 -215 28 -81 11 -242 -37 -355 l-14 -32 -79 49
-80 48 -16 78 c-32 152 -90 292 -173 417 -28 43 -39 66 -28 62 9 -4 76 -27
147 -52z m-1245 -37 c-420 -95 -728 -421 -803 -846 -7 -41 -12 -99 -12 -127 1
-63 -7 -58 -30 21 -27 97 -1 233 77 396 97 202 335 498 418 520 59 16 140 30
205 37 33 3 61 7 63 8 1 1 33 2 70 3 l67 1 -55 -13z m768 -97 c138 -55 302
-168 302 -209 0 -10 -4 -10 -17 2 -36 32 -180 116 -343 201 -63 32 -117 61
-119 63 -9 8 108 -29 177 -57z m-1283 -21 c-175 -215 -275 -381 -336 -558 -16
-47 -29 -79 -30 -72 -3 28 -3 39 4 87 8 54 43 159 79 234 65 135 234 323 306
340 2 1 -8 -14 -23 -31z m-218 -151 c-36 -47 -100 -172 -125 -242 -18 -51 -20
-54 -15 -20 12 84 60 186 122 262 34 42 50 42 18 0z m1797 -77 c51 -35 69 -66
114 -195 20 -57 49 -170 58 -225 15 -92 19 -148 12 -144 -4 3 -8 19 -8 35 0
58 -42 205 -86 298 -46 98 -111 196 -179 270 l-40 44 40 -25 c22 -14 62 -40
89 -58z m202 -200 c16 -40 24 -78 23 -117 0 -61 -12 -52 -23 18 -3 19 -17 69
-31 112 -14 43 -25 81 -25 85 0 15 34 -43 56 -98z m122 -12 c37 -23 68 -42 70
-43 2 -2 -56 -115 -63 -123 -2 -2 -9 14 -15 35 -7 21 -23 61 -35 88 -28 61
-36 85 -29 85 2 0 35 -19 72 -42z m173 -125 c172 -194 150 -522 -59 -858 -95
-152 -266 -321 -389 -384 -24 -12 -43 -20 -43 -19 0 18 83 155 133 221 106
139 165 258 208 422 27 101 35 336 15 437 -12 62 -12 69 6 98 10 17 30 53 44
81 14 27 30 49 34 49 5 0 27 -21 51 -47z m-234 -90 c3 -44 1 -63 -12 -78 -15
-19 -16 -16 -11 50 3 39 6 76 6 84 0 37 13 -4 17 -56z m-2357 -269 c17 -59 53
-159 80 -223 26 -64 61 -150 78 -191 17 -41 44 -116 60 -167 l29 -92 -27 14
c-35 18 -123 88 -162 128 -164 172 -214 453 -136 766 l11 44 18 -86 c9 -48 31
-135 49 -193z m2432 21 c1 -120 -3 -156 -23 -243 -12 -49 -44 -148 -63 -193
-17 -38 -100 -179 -107 -179 -3 0 5 31 17 69 13 39 27 94 33 123 6 29 13 64
16 78 8 40 15 82 20 122 2 20 15 74 29 120 14 46 30 117 36 158 6 41 14 86 17
100 l6 25 9 -30 c5 -16 9 -84 10 -150z m-84 56 c-1 -16 -5 -28 -9 -26 -6 5 0
55 7 55 3 0 3 -13 2 -29z m-2143 -296 c8 -102 40 -225 78 -295 35 -66 100
-153 130 -174 12 -8 36 -27 52 -42 25 -21 26 -25 8 -19 -12 3 -30 8 -40 10
-72 14 -87 33 -188 235 -39 79 -73 191 -90 300 -4 25 -9 54 -11 65 -2 11 -6
58 -9 105 l-6 85 35 -95 c23 -63 36 -121 41 -175z m2065 29 c-13 -30 -18 -38
-14 -19 3 17 7 39 9 50 1 11 6 45 11 75 l9 55 3 -56 c2 -39 -3 -70 -18 -105z
m-1989 -144 c57 -142 140 -272 224 -351 19 -18 32 -35 30 -37 -7 -7 -115 76
-153 117 -77 82 -141 228 -157 356 -7 63 2 49 56 -85z m1974 -52 c-14 -94 -77
-283 -103 -313 -35 -38 -96 -94 -99 -91 -5 4 88 228 114 276 13 25 38 73 56
108 17 34 33 62 35 62 1 0 0 -19 -3 -42z m-1945 -298 c6 -11 8 -20 6 -20 -3 0
-10 9 -16 20 -6 11 -8 20 -6 20 3 0 10 -9 16 -20z m106 -162 c78 -106 180
-225 237 -277 22 -20 52 -47 66 -59 38 -35 149 -106 201 -130 137 -62 274 -61
435 1 49 19 71 23 120 18 146 -15 296 70 414 235 13 19 38 38 55 43 17 5 39
12 50 16 17 7 17 6 6 -16 -27 -51 -141 -188 -211 -253 -113 -105 -230 -176
-362 -221 -183 -61 -369 -50 -517 32 -162 89 -317 249 -457 473 -56 90 -125
230 -114 230 5 0 40 -41 77 -92z m1495 74 c-5 -10 -48 -59 -95 -109 -84 -88
-88 -91 -156 -108 -47 -12 -89 -15 -131 -11 -63 5 -83 12 -58 20 191 57 299
108 391 182 62 50 62 50 49 26z m-1376 -28 c108 -15 145 -31 223 -100 99 -89
173 -147 258 -204 83 -57 241 -140 263 -140 11 0 12 -3 4 -11 -5 -5 -49 -18
-97 -28 -193 -39 -358 28 -551 223 -104 105 -123 127 -188 217 l-47 66 48 -9
c26 -5 65 -11 87 -14z m1431 -33 c-14 -22 -36 -46 -48 -52 -26 -14 -28 -18 32
58 41 53 50 49 16 -6z m119 -41 c-21 -42 -35 -55 -71 -72 -52 -22 -63 -19 -41
12 16 22 130 119 135 114 2 -1 -8 -25 -23 -54z m-1232 -59 c98 -66 249 -125
382 -147 60 -10 284 -7 332 4 24 5 40 6 38 1 -9 -13 -165 -114 -221 -142 l-51
-26 -80 33 c-128 52 -281 150 -418 270 -49 43 -39 47 18 7z m1022 -51 c-3 -5
-14 -10 -23 -9 -14 0 -13 2 3 9 27 11 27 11 20 0z m-515 -31 c10 -7 -6 -8 -55
-3 -38 3 -72 8 -74 10 -10 9 115 3 129 -7z m451 -47 c-27 -51 -159 -151 -231
-177 -39 -14 -110 -28 -110 -22 0 2 24 19 53 37 48 30 195 145 207 161 5 7 39
15 73 18 14 1 16 -3 8 -17z"/>
</g>
</svg>
