<?xml version="1.0" standalone="no"?>
<!DOCTYPE svg PUBLIC "-//W3C//DTD SVG 20010904//EN"
 "http://www.w3.org/TR/2001/REC-SVG-20010904/DTD/svg10.dtd">
<svg version="1.0" xmlns="http://www.w3.org/2000/svg"
 width="16.000000pt" height="16.000000pt" viewBox="0 0 16.000000 16.000000"
 preserveAspectRatio="xMidYMid meet">
<metadata>
Created by potrace 1.11, written by Peter Selinger 2001-2013
</metadata>
<g transform="translate(0.000000,16.000000) scale(0.002286,-0.002286)"
fill="#000000" stroke="none">
<path d="M3727 6994 c-1 -1 -28 -4 -59 -8 -63 -6 -208 -37 -278 -59 -61 -19
-192 -20 -254 -2 -28 8 -64 17 -81 20 -16 2 -41 7 -55 10 -148 33 -445 38
-600 10 -14 -3 -41 -7 -60 -10 -194 -30 -490 -139 -678 -250 -58 -34 -216
-140 -233 -157 -8 -7 -36 -31 -64 -53 -80 -64 -236 -223 -314 -320 -233 -290
-406 -643 -486 -990 -10 -43 -40 -115 -78 -185 -81 -153 -78 -146 -142 -293
-75 -174 -108 -265 -154 -430 -29 -102 -72 -314 -87 -422 -10 -79 -13 -443 -4
-515 68 -522 285 -885 690 -1152 78 -51 89 -62 129 -134 221 -398 473 -632
823 -764 84 -32 88 -35 165 -124 66 -77 105 -132 178 -254 121 -202 324 -442
505 -597 60 -51 222 -155 296 -190 257 -121 589 -149 929 -79 84 17 252 68
315 96 209 91 457 237 594 351 28 23 62 51 75 62 71 57 272 256 353 350 110
128 214 268 327 445 65 100 72 108 152 157 143 87 287 202 429 343 75 74 149
151 165 170 248 295 449 643 567 980 31 89 74 257 94 365 26 140 27 454 1 575
-71 335 -238 571 -524 738 -66 39 -71 47 -49 90 26 52 96 268 117 362 24 110
34 336 18 418 -40 211 -150 371 -325 473 -80 47 -126 66 -407 164 -87 31 -252
93 -367 139 -195 78 -212 87 -267 139 -256 245 -618 436 -943 497 -36 7 -72
13 -80 15 -68 13 -323 28 -333 19z m-873 -99 c61 -6 88 -15 46 -15 -76 0 -385
-90 -555 -162 -119 -51 -316 -150 -380 -191 -18 -12 -73 -47 -121 -77 -262
-163 -561 -413 -784 -656 -105 -114 -129 -142 -206 -240 -42 -55 -78 -101 -81
-104 -3 -3 5 20 17 50 206 527 592 958 1072 1197 163 81 200 95 383 142 148
39 195 47 350 57 55 3 101 7 102 8 3 3 98 -2 157 -9z m1176 -60 c152 -18 354
-75 505 -144 70 -32 225 -119 225 -127 0 -2 -30 8 -67 22 -309 119 -603 214
-745 241 -16 3 -28 9 -28 13 0 4 12 6 28 4 15 -1 52 -6 82 -9z m-1050 -76
c-63 -34 -179 -101 -256 -150 -78 -49 -156 -91 -174 -94 -287 -51 -638 -182
-870 -326 -198 -123 -379 -296 -493 -469 -96 -148 -179 -353 -203 -508 -3 -20
-8 -40 -10 -43 -17 -28 -26 -397 -12 -504 6 -48 4 -53 -46 -130 -92 -140 -180
-323 -226 -468 -14 -43 -17 -44 -24 -2 -19 120 -34 242 -42 340 -18 246 9 603
54 690 63 125 279 423 439 605 388 441 946 833 1418 995 78 27 207 65 238 70
15 3 60 12 100 21 39 8 99 17 132 20 33 3 62 8 64 10 2 2 9 4 15 4 6 0 -41
-28 -104 -61z m675 35 c252 -34 653 -159 1189 -372 196 -78 201 -80 262 -143
35 -35 62 -65 60 -67 -2 -2 -26 11 -54 28 -147 90 -491 220 -651 246 -14 2
-69 13 -121 24 -52 11 -113 22 -135 25 -22 2 -56 7 -75 10 -19 2 -55 7 -80 10
-92 12 -107 17 -175 57 -90 53 -339 178 -357 178 -10 0 -9 3 2 11 8 5 33 7 55
4 22 -3 58 -9 80 -11z m-90 -108 c75 -37 146 -72 156 -79 15 -11 -33 -13 -274
-13 -161 1 -332 -3 -381 -7 -50 -4 -87 -5 -84 -2 11 11 175 89 278 131 72 30
115 43 136 40 17 -2 93 -34 169 -70z m200 -221 c61 -5 113 -10 118 -11 4 -1
26 -2 50 -3 42 -1 94 -32 252 -154 l49 -38 -57 6 c-32 4 -66 8 -75 10 -140 26
-539 39 -722 24 -130 -11 -212 -19 -230 -24 -8 -2 -35 -7 -60 -10 -90 -13
-290 -66 -406 -109 -261 -97 -489 -236 -659 -403 -54 -53 -182 -198 -202 -229
-7 -10 -30 -44 -51 -74 -22 -30 -54 -82 -72 -115 -18 -33 -40 -73 -49 -89 -9
-15 -59 -57 -111 -91 -52 -35 -121 -85 -154 -111 -68 -55 -66 -50 31 98 93
142 244 339 368 478 64 72 374 380 445 441 134 116 396 316 455 347 12 6 48
14 80 17 33 4 62 9 66 10 3 2 39 7 80 11 40 3 76 8 79 9 3 2 59 7 125 10 66 4
121 8 123 10 6 5 428 -3 527 -10z m500 -60 c127 -23 134 -24 245 -51 58 -13
116 -28 130 -33 14 -5 66 -24 115 -42 183 -65 433 -204 592 -331 47 -37 73
-68 105 -126 24 -42 45 -81 47 -87 2 -5 18 -39 36 -75 l31 -65 -125 125 c-115
114 -283 250 -310 250 -6 0 -11 5 -11 10 0 6 -4 10 -9 10 -5 0 -36 15 -69 34
-128 72 -299 132 -504 176 -98 21 -98 21 -229 121 -72 54 -130 99 -128 99 2 0
40 -7 84 -15z m-1945 -89 c-8 -7 -53 -46 -100 -86 -131 -113 -425 -412 -536
-545 -223 -269 -407 -537 -528 -770 -20 -38 -36 -63 -37 -55 -5 92 9 245 31
345 58 260 174 469 365 660 192 192 397 313 755 444 67 24 68 24 50 7z m3145
-136 c11 -5 93 -34 182 -64 264 -89 348 -131 444 -218 94 -87 170 -223 185
-335 3 -26 8 -52 11 -56 7 -11 5 -194 -2 -252 -9 -65 -20 -121 -47 -224 l-22
-84 -14 34 c-60 139 -174 354 -243 459 -140 209 -253 340 -450 522 -21 18 -67
76 -104 128 -38 52 -79 109 -92 127 l-24 31 78 -29 c43 -17 87 -34 98 -39z
m-1480 -14 c17 -2 59 -7 95 -11 60 -5 255 -33 290 -40 8 -2 22 -4 30 -4 25 -2
305 -281 440 -440 l55 -65 -90 60 c-193 129 -367 214 -590 289 -80 27 -224 64
-280 72 -16 2 -52 8 -80 13 -93 18 -180 23 -355 24 -213 1 -315 -9 -485 -46
-49 -10 -101 -21 -115 -24 -75 -14 -313 -104 -435 -164 -201 -98 -354 -201
-525 -350 -40 -36 -71 -60 -67 -54 30 51 211 237 294 304 304 244 748 406
1198 436 50 4 92 8 94 10 5 5 491 -4 526 -10z m855 -194 c318 -147 644 -476
824 -830 l27 -53 -53 34 c-29 18 -139 88 -245 156 -182 116 -195 126 -249 199
-127 170 -275 337 -513 577 -5 6 156 -59 209 -83z m858 -367 c83 -100 173
-230 246 -352 66 -111 206 -426 195 -438 -2 -2 -46 22 -98 53 -88 53 -96 60
-118 112 -13 30 -53 114 -87 185 -35 72 -84 191 -108 265 -25 74 -54 160 -66
190 -25 61 -27 62 36 -15z m-159 -544 c101 -67 190 -125 197 -129 17 -9 28
-144 26 -307 -2 -71 -4 -141 -6 -155 -2 -14 -4 -41 -5 -60 -2 -30 -7 -21 -35
60 -50 145 -127 318 -179 405 -47 79 -162 251 -171 257 -6 4 -7 8 -3 8 5 0 1
10 -7 22 -9 12 -16 27 -16 33 0 6 3 6 8 -1 4 -6 90 -66 191 -133z m-4029 -85
c-116 -185 -214 -403 -275 -611 -14 -49 -27 -90 -29 -92 -4 -4 -47 191 -53
242 -3 22 -8 56 -12 75 -13 61 20 112 178 272 87 87 242 221 249 214 1 -2 -25
-47 -58 -100z m4600 -295 c-1 -3 -13 -30 -28 -59 l-28 -53 -22 84 c-12 47 -22
87 -22 90 0 4 23 -8 50 -25 28 -17 50 -34 50 -37z m-5616 -161 c3 -107 7 -208
10 -225 3 -16 7 -52 10 -80 5 -43 22 -146 42 -250 10 -53 45 -208 48 -214 3
-5 -4 -74 -19 -196 -3 -22 -6 -103 -6 -180 -2 -313 43 -582 151 -899 16 -49
29 -91 27 -92 -1 -2 -32 25 -68 59 -133 126 -245 287 -317 452 -32 75 -87 255
-97 320 -4 22 -8 45 -9 50 -25 95 -36 362 -22 515 6 70 19 182 21 190 1 3 5
28 9 55 4 28 14 75 21 105 8 30 16 66 18 80 14 75 103 349 143 438 13 29 24
58 24 64 0 6 2 9 5 7 2 -3 6 -92 9 -199z m5394 60 c11 -36 28 -99 37 -141 l18
-76 -67 -103 c-36 -57 -66 -97 -66 -89 0 8 5 48 10 89 16 120 27 248 30 365 2
76 1 76 38 -45z m342 -97 c30 -164 35 -233 35 -453 0 -222 -4 -264 -40 -445
-25 -121 -81 -315 -91 -315 -4 0 -4 6 -1 14 31 81 25 781 -8 906 -2 8 -7 42
-11 75 -3 33 -8 63 -10 67 -5 8 103 218 112 218 1 0 7 -30 14 -67z m181 11
c381 -290 480 -830 268 -1458 -166 -490 -534 -1001 -940 -1304 -31 -23 -58
-42 -61 -42 -3 0 17 46 44 103 113 231 228 554 299 842 30 120 51 180 83 240
143 265 239 586 272 905 17 155 8 473 -16 598 -4 26 -11 67 -15 92 -3 25 -9
53 -12 64 -6 22 0 19 78 -40z m-3843 -63 c21 -2 13 -19 -10 -23 -21 -3 -23 -8
-24 -76 -1 -69 -7 -92 -20 -79 -3 3 -6 40 -7 81 -1 72 -2 76 -24 76 -13 0 -23
4 -23 9 0 11 32 17 70 14 14 -1 31 -2 38 -2z m87 -39 c0 -23 4 -26 38 -28 22
-2 37 2 38 9 1 7 2 21 3 31 0 11 7 21 14 23 9 4 12 -18 12 -87 0 -69 -3 -91
-12 -87 -8 2 -13 21 -13 43 0 39 0 39 -40 39 -38 0 -39 -1 -41 -38 -2 -39 -9
-55 -19 -45 -3 3 -6 36 -6 74 -1 117 -1 120 14 105 6 -6 12 -24 12 -39z m270
31 c3 -9 -6 -13 -29 -13 -22 0 -36 -6 -40 -17 -8 -20 11 -34 42 -28 14 2 22
-1 22 -11 0 -9 -11 -14 -33 -14 -30 0 -33 -3 -33 -30 0 -27 3 -30 32 -30 18 0
36 -4 39 -10 7 -11 7 -11 -52 -15 l-43 -3 0 91 0 92 45 0 c27 0 47 -5 50 -12z
m-1862 -263 c41 -134 80 -244 87 -248 3 -1 3 -31 0 -66 -8 -98 0 -341 14 -426
3 -14 7 -42 10 -64 4 -21 9 -43 13 -50 3 -6 2 -8 -2 -3 -18 16 -122 304 -140
387 -25 117 -34 165 -40 215 -8 68 -9 215 -1 260 2 17 7 49 11 73 4 24 8 42
10 40 2 -2 19 -55 38 -118z m-158 73 c-13 -34 -20 -119 -19 -243 2 -248 78
-516 237 -836 80 -161 202 -366 211 -356 4 4 6 2 5 -3 -2 -6 22 -59 53 -120
47 -93 67 -149 84 -244 13 -68 99 -384 109 -402 9 -13 -2 -12 -104 12 l-90 21
-38 71 c-215 410 -378 797 -506 1207 -110 351 -108 335 -72 503 30 143 115
407 132 407 3 0 2 -8 -2 -17z m1288 -99 c23 -8 59 -26 79 -39 l38 -25 -32 -45
-32 -45 -30 21 c-83 55 -162 65 -240 31 -117 -52 -173 -184 -134 -314 15 -51
82 -126 133 -149 77 -35 191 -17 252 41 20 18 21 18 59 -21 l39 -40 -25 -21
c-135 -110 -346 -104 -468 12 -69 67 -103 143 -108 248 -12 246 234 429 469
346z m1621 10 c53 -12 146 -61 146 -77 0 -5 -12 -25 -27 -45 -15 -20 -28 -39
-30 -41 -1 -2 -15 7 -30 19 -158 124 -385 9 -385 -195 0 -219 243 -337 398
-194 21 20 21 20 59 -22 l38 -42 -24 -19 c-78 -62 -180 -89 -283 -76 -115 15
-214 88 -264 194 -23 51 -27 71 -27 154 0 81 4 103 26 150 30 63 101 139 156
166 74 36 165 46 247 28z m-1221 -316 c-1 -178 -2 -335 -2 -349 -1 -24 -4 -25
-53 -25 l-53 1 -3 348 -2 347 57 0 58 0 -2 -322z m482 311 c130 -35 195 -168
142 -290 -16 -37 -61 -89 -92 -106 -17 -10 -10 -22 82 -144 56 -73 100 -136
98 -139 -2 -3 -28 -6 -57 -5 l-53 1 -112 154 c-62 85 -113 160 -113 165 0 6
19 16 43 23 92 28 133 97 107 178 -16 48 -72 75 -159 77 l-66 2 0 -300 0 -300
-52 -1 c-29 0 -54 2 -54 5 -1 3 -2 160 -3 349 l-1 342 125 0 c69 0 143 -5 165
-11z m1180 -284 l0 -295 148 0 147 0 0 -53 0 -53 -200 0 c-110 0 -201 3 -201
6 -1 3 -2 159 -3 348 l-1 342 55 0 56 0 -1 -295z m875 242 l0 -53 -160 2 -160
1 0 -84 c0 -79 1 -83 23 -84 12 0 72 -1 133 -1 l111 1 2 -55 c1 -38 -2 -54
-11 -55 -7 0 -68 -1 -135 -2 l-123 0 0 -104 0 -103 160 0 160 0 0 -53 0 -53
-215 0 -215 1 0 117 c-1 65 -1 156 -1 203 0 47 0 150 1 230 l0 145 215 0 215
0 0 -53z m854 22 c37 -237 42 -710 10 -962 -12 -102 -16 -132 -19 -146 -2 -9
-6 -42 -10 -74 -6 -46 -18 -73 -71 -152 -141 -213 -321 -402 -541 -569 -35
-26 -63 -45 -63 -42 0 18 43 92 90 156 226 305 374 664 434 1055 3 17 8 50 12
75 4 25 8 146 8 270 l1 225 70 97 c38 53 71 95 73 94 1 -2 5 -14 6 -27z
m-2834 -760 c0 -5 -7 -9 -15 -9 -15 0 -20 12 -9 23 8 8 24 -1 24 -14z m34 -7
c-22 -5 -31 7 -14 18 9 6 17 5 22 -3 4 -7 1 -13 -8 -15z m-589 -121 c26 -63
31 -81 19 -81 -8 0 -19 11 -25 24 -9 18 -19 24 -44 24 -25 0 -35 -6 -44 -24
-6 -13 -17 -24 -25 -24 -11 0 -4 24 27 95 28 63 44 90 49 81 5 -8 24 -51 43
-95z m1580 0 c24 -57 30 -81 21 -81 -8 0 -21 11 -30 25 -11 17 -26 25 -45 25
-20 0 -31 -7 -39 -25 -6 -14 -18 -25 -26 -25 -11 0 -4 24 27 95 28 63 44 90
49 81 5 -8 24 -51 43 -95z m-1425 84 c0 -8 -9 -15 -20 -15 -18 0 -20 -7 -20
-75 0 -55 -3 -75 -13 -75 -10 0 -13 18 -12 70 1 76 -2 85 -24 85 -8 0 -16 6
-18 13 -4 9 11 12 51 12 43 0 56 -3 56 -15z m290 8 c0 -5 -9 -19 -20 -33 -11
-14 -20 -29 -20 -33 0 -5 -12 -24 -26 -43 -19 -24 -22 -34 -13 -36 8 0 23 -2
34 -3 11 -1 26 -3 33 -4 6 0 12 -5 12 -11 0 -6 -28 -10 -65 -10 -36 0 -65 2
-65 5 0 3 18 34 40 69 22 35 40 68 40 73 0 6 -16 9 -35 6 -26 -3 -35 0 -35 12
0 12 13 15 60 15 33 0 60 -3 60 -7z m80 -62 c0 -74 13 -98 49 -86 24 7 30 26
28 88 -2 51 5 73 20 64 17 -11 7 -136 -12 -158 -21 -22 -63 -25 -89 -6 -24 18
-33 167 -10 167 11 0 14 -17 14 -69z m243 55 c22 -10 22 -53 1 -77 -15 -17
-14 -20 5 -48 25 -34 26 -41 7 -41 -8 0 -23 14 -33 30 -9 17 -21 30 -25 30 -5
0 -6 -13 -3 -30 4 -22 1 -30 -10 -30 -12 0 -15 16 -15 91 l0 90 28 -4 c15 -2
35 -7 45 -11z m115 -76 c0 -70 -4 -90 -14 -90 -11 0 -14 20 -14 90 0 71 3 90
14 90 11 0 14 -19 14 -90z m198 73 c20 -20 7 -27 -27 -15 -54 20 -101 -36 -74
-88 18 -34 43 -44 79 -30 37 14 38 13 26 -10 -16 -30 -79 -27 -114 5 -32 30
-37 66 -14 111 20 42 93 58 124 27z m95 0 c1 -10 2 -26 2 -36 0 -15 7 -18 41
-15 37 3 41 6 41 30 1 29 11 46 21 35 5 -5 7 -69 5 -154 -1 -13 -7 -23 -15
-23 -10 0 -13 11 -11 39 3 33 0 40 -18 43 -41 8 -65 -5 -62 -33 3 -25 -9 -58
-19 -49 -12 13 -9 180 4 180 6 0 11 -8 11 -17z m513 -68 c-1 -83 -8 -111 -22
-88 -6 9 -8 158 -3 171 1 1 7 2 14 2 9 0 12 -23 11 -85z m138 73 c26 -21 28
-45 6 -73 l-20 -26 27 -34 c23 -31 24 -35 8 -35 -10 0 -27 14 -37 31 -19 33
-38 25 -29 -12 4 -13 0 -19 -11 -19 -14 0 -16 14 -16 90 l0 90 28 0 c16 0 35
-6 44 -12z m166 -4 c30 -21 29 -59 -3 -80 -13 -8 -29 -13 -35 -9 -6 4 -10 -9
-10 -34 0 -30 -4 -41 -15 -41 -12 0 -15 17 -15 90 l0 90 28 0 c15 0 38 -7 50
-16z m211 -10 c55 -46 36 -134 -32 -152 -94 -25 -157 80 -88 149 37 37 79 38
120 3z m164 7 c23 -19 22 -58 -3 -73 -19 -12 -19 -13 5 -44 29 -38 30 -44 11
-44 -8 0 -23 14 -33 30 -9 17 -21 30 -25 30 -4 0 -8 -13 -8 -30 0 -18 -5 -30
-13 -30 -10 0 -12 21 -11 83 1 45 2 86 3 90 2 13 54 4 74 -12z m167 4 c0 -10
-7 -15 -17 -13 -16 3 -18 -7 -21 -74 -2 -57 -6 -78 -16 -78 -10 0 -13 17 -12
71 1 65 -1 72 -21 80 -40 15 -25 29 32 29 43 0 55 -3 55 -15z m-4352 -135
c106 -306 355 -864 469 -1047 7 -13 9 -23 4 -23 -17 0 -110 39 -197 82 l-83
42 -40 95 c-85 204 -152 447 -177 641 -3 25 -7 56 -9 70 -3 14 -7 63 -10 110
-4 47 -8 102 -9 123 -5 57 8 34 52 -93z m5086 -712 c-88 -306 -156 -488 -280
-748 l-65 -135 -92 -47 c-118 -60 -240 -109 -347 -142 -83 -24 -212 -56 -230
-56 -6 0 21 46 59 103 76 113 168 271 226 387 37 74 40 76 152 150 136 89 278
205 388 315 81 81 173 185 188 211 15 27 16 13 1 -38z m-4039 -395 c100 -102
100 -98 -17 -87 l-67 7 -46 136 -45 136 42 -50 c23 -28 83 -92 133 -142z
m-697 -59 c20 -9 79 -29 130 -46 l94 -30 36 -60 c21 -33 83 -129 140 -214 56
-85 102 -157 102 -159 0 -3 -35 16 -77 41 -173 102 -308 230 -420 399 -65 98
-65 95 -5 69z m506 -150 c8 -10 21 -43 31 -73 9 -31 23 -69 30 -86 34 -80 104
-259 102 -261 -7 -7 -287 409 -303 450 -8 21 124 -7 140 -30z m476 -39 c20
-13 81 -65 136 -115 115 -108 239 -214 341 -292 53 -41 68 -57 55 -60 -71 -18
-449 -13 -554 7 -13 3 -35 6 -50 7 -24 2 -34 17 -97 148 -38 80 -88 189 -110
243 l-41 99 142 -7 c124 -6 146 -10 178 -30z m2784 -117 c-83 -137 -246 -363
-287 -396 -10 -9 -40 -12 -86 -10 l-70 3 75 85 c42 47 120 141 174 210 93 119
102 127 162 152 35 14 65 24 67 23 2 -2 -14 -32 -35 -67z m-2259 -170 c79 -32
162 -58 275 -87 l105 -27 -103 -22 c-56 -12 -113 -22 -127 -22 -15 0 -69 37
-149 100 -69 56 -126 103 -126 106 0 2 17 -3 38 -12 20 -8 60 -25 87 -36z
m1789 3 c-16 -16 -73 -74 -128 -129 -84 -86 -102 -100 -125 -97 -122 20 -266
49 -320 64 -49 14 -49 19 0 25 142 18 421 97 549 155 24 11 46 18 49 15 2 -2
-9 -17 -25 -33z m-883 -205 c108 -44 296 -99 414 -121 50 -9 93 -20 97 -24 4
-4 -27 -33 -69 -66 -42 -33 -81 -64 -87 -70 -6 -5 -52 -38 -102 -71 l-92 -61
-93 23 c-177 45 -402 146 -602 271 l-48 30 103 27 c96 26 150 43 273 87 63 23
99 19 206 -25z m1798 -48 c-141 -210 -237 -327 -419 -508 -306 -307 -626 -500
-975 -590 -110 -29 -129 -32 -238 -45 -103 -13 -307 -7 -402 11 -126 23 -260
73 -370 137 -133 78 -278 196 -395 322 l-35 37 55 -30 c92 -51 262 -108 355
-118 50 -6 230 -5 256 0 13 3 35 8 49 10 161 26 355 105 544 218 l98 60 112 3
c113 3 144 7 193 26 16 6 28 9 28 8 0 -8 91 30 155 64 96 50 203 130 292 218
l71 69 108 20 c185 33 341 79 495 144 43 19 80 35 82 35 1 1 -25 -41 -59 -91z
m-2398 -121 c80 -51 141 -86 248 -143 80 -43 235 -111 306 -135 39 -13 74 -26
79 -31 5 -4 -30 -25 -77 -47 -431 -198 -757 -182 -1114 55 -46 30 -95 67 -109
82 -24 24 -166 244 -161 248 1 1 25 -2 52 -6 74 -12 478 -3 560 12 120 24 123
23 216 -35z m1509 -9 c0 -12 -141 -114 -211 -152 -53 -29 -168 -76 -186 -76
-2 0 24 23 59 52 35 29 89 77 121 107 32 31 67 61 77 66 22 12 140 14 140 3z"/>
<path d="M2534 3254 c-4 -10 -9 -22 -10 -25 -2 -4 7 -6 21 -6 22 0 23 2 13 21
-16 30 -17 31 -24 10z"/>
<path d="M4116 3254 c-10 -25 -7 -34 9 -34 8 0 15 9 15 19 0 26 -16 35 -24 15z"/>
<path d="M3318 3288 c-7 -19 2 -38 17 -38 15 0 24 19 18 38 -3 6 -11 12 -18
12 -7 0 -15 -6 -17 -12z"/>
<path d="M4375 3278 c2 -27 18 -34 34 -14 15 18 6 36 -18 36 -12 0 -17 -7 -16
-22z"/>
<path d="M4540 3274 c0 -33 33 -30 38 4 3 17 -2 22 -17 22 -16 0 -21 -6 -21
-26z"/>
<path d="M4714 3298 c-35 -16 -47 -54 -29 -88 9 -17 21 -30 28 -31 6 0 20 -2
31 -4 24 -5 66 37 61 61 -2 11 -4 25 -4 31 -1 10 -52 45 -63 42 -2 0 -13 -5
-24 -11z"/>
<path d="M4910 3274 c0 -33 33 -30 38 4 3 17 -2 22 -17 22 -16 0 -21 -6 -21
-26z"/>
</g>
</svg>
