<?xml version="1.0" encoding="utf-8"?>
<!-- Generator: Adobe Illustrator 21.0.2, SVG Export Plug-In . SVG Version: 6.00 Build 0)  -->
<svg version="1.1" id="Ebene_1" xmlns="http://www.w3.org/2000/svg" xmlns:xlink="http://www.w3.org/1999/xlink" x="0px" y="0px"
	 viewBox="0 0 140 140" style="enable-background:new 0 0 140 140;" xml:space="preserve">
<style type="text/css">
	.st0{fill:#1A1A18;}
	.st1{fill:#FFFFFF;}
</style>
<circle class="st0" cx="70" cy="70" r="70"/>
<g>
	<path class="st1" d="M102.716,82.049c-0.402-0.26-0.852-0.284-1.349-0.284h-0.971v5.374h0.805V84.89h0.284
		c0.473,0.047,0.923-0.095,1.302-0.379c0.355-0.308,0.544-0.734,0.521-1.184C103.355,82.831,103.118,82.357,102.716,82.049z
		 M102.526,83.304c0,0.568-0.331,0.805-1.042,0.805h-0.26v-1.586h0.095C102.1,82.523,102.526,82.641,102.526,83.304z"/>
	<polygon class="st1" points="44.67,82.523 45.901,82.523 45.901,87.115 46.706,87.115 46.706,82.523 47.961,82.523 47.961,81.765 
		44.67,81.765 	"/>
	<path class="st1" d="M39.226,87.115h0.876l0.615-1.468h2.036l0.615,1.444h0.9l-2.486-5.8L39.226,87.115z M41.735,83.257
		l0.687,1.633h-1.373L41.735,83.257z"/>
	<polygon class="st1" points="47.393,50.896 45.002,50.896 45.002,48.813 44.173,48.813 44.173,54.187 45.002,54.187 45.002,51.654 
		47.393,51.654 47.393,54.187 48.197,54.187 48.197,48.813 47.393,48.813 	"/>
	<polygon class="st1" points="115.641,81.765 115.641,82.523 116.872,82.523 116.872,87.115 117.7,87.115 117.7,82.523 
		118.931,82.523 118.931,81.765 	"/>
	<path class="st1" d="M58.471,69.74l0.118-0.047c2.438-1.231,3.788-3.385,3.811-6.06c0.024-3.551-2.58-6.084-6.463-6.321
		l-1.089-0.047h-5.966v20.761h3.29V60.081l0.971-0.024c0.473,0,1.042,0,1.799,0.047c2.675,0.166,4.143,1.373,4.237,3.504
		c0.071,2.131-1.326,3.669-4.072,4.403c-0.213,0.071-0.426,0.118-0.592,0.142l-0.426,0.071l6.983,9.729h0.071h3.267l0.284-0.047
		L58.471,69.74z"/>
	<polygon class="st1" points="53.074,53.405 50.991,53.405 50.991,51.63 53.027,51.63 53.027,50.873 50.991,50.873 50.991,49.571 
		53.074,49.571 53.074,48.813 50.186,48.813 50.186,54.187 53.074,54.187 	"/>
	<polygon class="st1" points="101.603,74.853 92.797,74.853 92.797,57.24 89.459,57.24 89.459,78.001 101.603,78.001 	"/>
	<polygon class="st1" points="118.931,74.853 109.32,74.853 109.32,68.698 117.322,68.698 117.322,65.384 109.32,65.384 
		109.32,60.389 118.931,60.389 118.931,57.24 105.982,57.24 105.982,78.001 118.931,78.001 	"/>
	<rect x="39.841" y="57.24" class="st1" width="3.338" height="20.761"/>
	<path class="st1" d="M32.455,73.314l-0.402,0.355c-0.166,0.142-0.331,0.26-0.497,0.379c-1.302,0.852-2.533,1.255-3.882,1.255
		c-0.521,0-1.042-0.071-1.562-0.189c-1.539-0.355-2.912-1.231-3.906-2.438c-1.255-1.491-1.894-3.362-1.823-5.303
		c0.024-1.42,0.473-2.793,1.278-3.953c1.373-2.036,3.527-3.267,5.776-3.267c0.024,0,0.024,0,0.047,0
		c1.752,0,3.385,0.615,4.853,1.846l0.521,0.45l1.87-2.77l-0.829-0.592l-0.758-0.497c-1.681-0.947-3.575-1.468-5.492-1.468
		c-0.402,0-0.781,0.024-1.184,0.071c-2.651,0.284-5.066,1.562-6.77,3.622c-1.586,1.894-2.462,4.285-2.486,6.747
		c-0.071,3.433,1.326,6.463,3.906,8.522c1.894,1.491,3.882,2.178,6.392,2.202c0.095,0,0.189,0,0.284,0
		c1.799,0,3.551-0.473,5.113-1.349c0.26-0.142,0.544-0.308,0.781-0.497l0.758-0.544l0.829-0.663l-2.296-2.344L32.455,73.314z"/>
	<polygon class="st1" points="40.586,54.187 41.391,54.187 41.391,49.571 42.645,49.571 42.645,48.813 39.355,48.813 39.355,49.571 
		40.586,49.571 	"/>
	<polygon class="st1" points="80.818,83.848 78.427,83.848 78.427,81.765 77.623,81.765 77.623,87.115 78.427,87.115 78.427,84.606 
		80.818,84.606 80.818,87.115 81.623,87.115 81.623,81.765 80.818,81.765 	"/>
	<path class="st1" d="M81.907,73.314l-0.402,0.355c-0.166,0.142-0.331,0.26-0.497,0.379c-1.302,0.852-2.533,1.255-3.882,1.255
		c-0.521,0-1.065-0.071-1.562-0.189c-1.539-0.355-2.912-1.231-3.906-2.438c-1.255-1.491-1.894-3.362-1.823-5.303
		c0.024-1.42,0.473-2.793,1.278-3.953c1.373-2.036,3.527-3.267,5.776-3.267c0.024,0,0.024,0,0.047,0
		c1.752,0,3.385,0.615,4.853,1.846l0.521,0.45l1.87-2.793l-0.852-0.568L82.57,58.59c-1.681-0.947-3.575-1.468-5.492-1.468
		c-0.402,0-0.781,0.024-1.184,0.071c-2.651,0.284-5.066,1.562-6.77,3.622c-1.586,1.894-2.462,4.285-2.486,6.747
		c-0.071,3.433,1.326,6.463,3.906,8.522c1.894,1.491,3.882,2.178,6.392,2.202c0.095,0,0.166,0,0.26,0
		c1.799,0,3.575-0.473,5.137-1.349c0.308-0.189,0.568-0.331,0.781-0.497l0.758-0.544l0.829-0.663l-2.296-2.344L81.907,73.314z"/>
	<path class="st1" d="M109.226,82.475c-0.521-0.521-1.231-0.805-1.965-0.805l0,0c-1.539,0-2.793,1.255-2.77,2.817
		c0,0.758,0.308,1.444,0.829,1.965c0.521,0.521,1.231,0.805,1.965,0.805c0,0,0,0,0.024,0c1.539,0,2.793-1.255,2.77-2.817h-0.118
		l0.118-0.024C110.03,83.683,109.746,82.996,109.226,82.475z M109.226,84.393c0,0.521-0.189,1.042-0.568,1.42
		c-0.379,0.379-0.876,0.592-1.397,0.592h-0.024c-0.521,0-1.018-0.189-1.373-0.568c-0.379-0.379-0.592-0.876-0.592-1.397v-0.024
		c0.024-1.089,0.9-1.965,1.989-1.989C108.326,82.428,109.226,83.304,109.226,84.393z"/>
	<path class="st1" d="M98.407,83.304c0-1.042-0.663-1.539-1.989-1.539h-0.852v5.374h0.805v-2.202l1.491,2.202h0.994l-1.657-2.32
		C97.934,84.677,98.455,84.038,98.407,83.304z M97.602,83.328c0,0.568-0.331,0.805-1.184,0.805h-0.047v-1.61h0.047
		C97.176,82.523,97.602,82.641,97.602,83.328z"/>
	<circle class="st1" cx="60.697" cy="80.795" r="0.473"/>
	<rect x="92.797" y="81.765" class="st1" width="0.805" height="5.374"/>
	<path class="st1" d="M74.048,81.671c-1.539,0-2.77,1.255-2.77,2.77s1.255,2.77,2.77,2.77c0.568,0,1.136-0.189,1.61-0.521
		l0.047-0.024V85.6l-0.213,0.213c-0.379,0.402-0.9,0.639-1.468,0.639c-0.994-0.071-1.775-0.852-1.846-1.846
		c-0.047-0.544,0.118-1.065,0.473-1.468c0.355-0.402,0.829-0.663,1.349-0.71c0.568,0,1.089,0.237,1.491,0.639l0.213,0.213v-1.065
		l-0.047-0.047C75.208,81.86,74.616,81.671,74.048,81.671z"/>
	<path class="st1" d="M86.358,87.115h0.876l0.615-1.444h2.012l0.615,1.444h0.9l-2.486-5.8L86.358,87.115z M88.891,83.257
		l0.687,1.633h-1.373L88.891,83.257z"/>
	<path class="st1" d="M61.194,85.008c0,0.379,0,0.758-0.213,1.018c-0.237,0.26-0.568,0.426-0.923,0.426s-0.71-0.166-0.947-0.45
		c-0.213-0.284-0.213-0.663-0.213-1.018l0.024-3.243h-0.805v3.338c0,0.544,0.047,1.089,0.544,1.562
		c0.379,0.355,0.876,0.544,1.397,0.544c0,0,0,0,0.024,0c0.544,0,1.065-0.237,1.444-0.615c0.45-0.45,0.473-0.947,0.473-1.491v-3.338
		h-0.805L61.194,85.008z"/>
	<polygon class="st1" points="52.885,81.742 52.885,82.523 55.252,82.523 52.459,87.115 56.459,87.115 56.459,86.358 53.808,86.358 
		56.625,81.742 	"/>
	<rect x="68.793" y="81.765" class="st1" width="0.805" height="5.374"/>
	<circle class="st1" cx="59.371" cy="80.795" r="0.473"/>
	<path class="st1" d="M114.41,83.304c0-1.042-0.663-1.539-1.989-1.539h-0.852v5.374h0.805v-2.202l1.491,2.202h0.994l-1.657-2.32
		C113.936,84.677,114.457,84.038,114.41,83.304z M113.605,83.328c0,0.568-0.331,0.805-1.184,0.805h-0.047v-1.61h0.047
		C113.179,82.523,113.605,82.641,113.605,83.328z"/>
	<path class="st1" d="M66.425,84.346c0.26-0.284,0.379-0.663,0.355-1.042c0-1.042-0.663-1.539-1.988-1.539H63.94v5.374h0.805v-2.202
		l1.515,2.202h0.994l-1.657-2.32C65.905,84.748,66.189,84.582,66.425,84.346z M65.976,83.328c0,0.568-0.331,0.805-1.184,0.805
		h-0.047v-1.61h0.047C65.55,82.523,65.976,82.641,65.976,83.328z"/>
</g>
</svg>
