<?xml version="1.0" encoding="utf-8"?>
<!-- Generator: Adobe Illustrator 21.0.0, SVG Export Plug-In . SVG Version: 6.00 Build 0)  -->
<!DOCTYPE svg PUBLIC "-//W3C//DTD SVG 1.1//EN" "http://www.w3.org/Graphics/SVG/1.1/DTD/svg11.dtd">
<svg version="1.1" id="Logo" xmlns="http://www.w3.org/2000/svg" xmlns:xlink="http://www.w3.org/1999/xlink" x="0px" y="0px"
	 viewBox="0 0 135 135" enable-background="new 0 0 135 135" xml:space="preserve">
<circle id="BG" cx="67.5" cy="67.5" r="67.5"/>
<path fill="#FFFFFF" d="M34.8,59.7l-1.6,2.4c-2-1.8-4.8-2.7-7.3-1.7c-2.9,1.1-4.7,4.2-4.5,7.2c0.2,2.8,2,5.5,4.8,6.4
	c2.6,0.9,5.2,0,7.1-1.9l2,2c-1.9,1.5-3.9,2.6-6.4,2.8c-3.3,0.2-6.4-1.2-8.4-3.8c-4.1-5.5-1.1-14.1,5.7-15.6
	C29.3,56.9,32.2,57.9,34.8,59.7z"/>
<path fill="#FFFFFF" d="M42.8,57.5v19.3h-2.9V57.5H42.8z"/>
<path fill="#FFFFFF" d="M81.3,59.7l-1.6,2.4c-2-1.8-4.7-2.7-7.3-1.7c-2.9,1.1-4.7,4.2-4.5,7.2c0.2,2.8,2,5.5,4.8,6.4
	c2.6,0.9,5.2,0,7.1-1.9l2,2c-1.9,1.5-3.9,2.6-6.4,2.8c-3.3,0.2-6.4-1.2-8.4-3.8c-4.1-5.5-1.1-14.1,5.7-15.6
	C75.8,56.9,78.7,57.9,81.3,59.7z"/>
<path fill="#FFFFFF" d="M89.5,57.5V74h8.3v2.7H86.6V57.5H89.5z"/>
<path fill="#FFFFFF" d="M114.1,60.2h-9v4.9h7.5V68H105v6h9v2.7h-12V57.5h12V60.2z"/>
<path fill="#FFFFFF" d="M63,76.8l-5.8-7.7c4.8-2.1,5.1-9.4-0.1-11.2c-1.4-0.5-2.9-0.4-4.3-0.4c-1.4,0-2.8,0-4.2,0l0,19.3h2.9l0-16.8
	c2.3,0,5.7-0.3,6.6,2.4c1,3.1-1.9,5-4.5,5.5l6.4,9C60.9,76.8,62,76.9,63,76.8z"/>
<path fill="#FFFFFF" d="M41.2,54.4h-0.5V50h-1.2v-0.5h2.9V50h-1.2V54.4z"/>
<path fill="#FFFFFF" d="M47,51.5v-2h0.5v4.8H47V52h-2.5v2.4H44v-4.8h0.5v2H47z"/>
<path fill="#FFFFFF" d="M49.6,49.5h2.5V50h-2v1.4h1.9V52h-1.9v1.9h2v0.5h-2.5V49.5z"/>
<path fill="#FFFFFF" d="M40.5,84L40,85.4h-0.6l2.2-5.1l2.2,5.1h-0.6L42.6,84H40.5z M41.6,81.6l-0.8,1.9h1.6L41.6,81.6z"/>
<path fill="#FFFFFF" d="M46.1,85.4h-0.5V81h-1.2v-0.5h2.9V81h-1.2V85.4z"/>
<path fill="#FFFFFF" d="M55.3,84.9v0.5h-3.5l2.6-4.3h-2.3v-0.5h3.2l-2.6,4.3H55.3z"/>
<path fill="#FFFFFF" d="M57.6,83.4c0,0.9,0.5,1.8,1.6,1.5C60,84.6,60,84,60,83.3c0-0.9,0-1.8,0-2.7h0.5c0,1.5,0.6,5.1-1.9,4.9
	c-2.2-0.2-1.6-3.4-1.6-4.9h0.5V83.4z"/>
<path fill="#FFFFFF" d="M63.1,85.4h-0.5v-4.8c0.7,0,1.6-0.1,2.1,0.4c0.8,0.8,0.2,2.2-0.8,2.3l1.5,2.2h-0.7l-1.5-2.1h-0.1V85.4z
	 M63.1,82.8c0.6,0,1.4-0.1,1.4-0.9c0-0.8-0.8-0.9-1.4-0.9V82.8z"/>
<path fill="#FFFFFF" d="M67.7,85.4h-0.5v-4.8h0.5V85.4z"/>
<path fill="#FFFFFF" d="M73.4,81.6c-1.2-1.2-3.3-0.5-3.4,1.2c-0.1,1.9,2.1,2.8,3.4,1.5V85c-1.6,1.2-4,0-4-2c0-2,2.3-3.2,4-2V81.6z"
	/>
<path fill="#FFFFFF" d="M78.4,82.5v-2H79v4.8h-0.5V83H76v2.4h-0.5v-4.8H76v2H78.4z"/>
<path fill="#FFFFFF" d="M84.9,84l-0.6,1.4h-0.6l2.2-5.1l2.2,5.1h-0.6L87,84H84.9z M85.9,81.6l-0.8,1.9h1.6L85.9,81.6z"/>
<path fill="#FFFFFF" d="M90.2,85.4h-0.5v-4.8h0.5V85.4z"/>
<path fill="#FFFFFF" d="M92.8,85.4h-0.5v-4.8c0.7,0,1.6-0.1,2.1,0.4c0.8,0.8,0.2,2.2-0.8,2.3l1.5,2.2h-0.7L93,83.2h-0.1V85.4z
	 M92.8,82.8c0.6,0,1.4-0.1,1.4-0.9c0-0.8-0.8-0.9-1.4-0.9V82.8z"/>
<path fill="#FFFFFF" d="M97.4,85.4h-0.5v-4.8c0.9,0,2.1-0.2,2.4,0.9c0.5,1.4-0.8,1.9-1.9,1.9V85.4z M97.4,82.8c0.6,0,1.5,0,1.5-0.9
	c0-0.8-0.8-0.9-1.5-0.8V82.8z"/>
<path fill="#FFFFFF" d="M105.7,83c0,1.4-1.1,2.5-2.5,2.5c-1.4,0-2.5-1.1-2.5-2.5c0-1.4,1.1-2.5,2.5-2.5
	C104.6,80.5,105.7,81.6,105.7,83z M101.2,83c0,1.1,0.9,2,2,2c1.1,0,2-0.9,2-2c0-1.1-0.9-2-2-2C102.1,81,101.2,81.9,101.2,83z"/>
<path fill="#FFFFFF" d="M107.9,85.4h-0.5v-4.8c0.7,0,1.6-0.1,2.1,0.4c0.8,0.8,0.2,2.2-0.8,2.3l1.5,2.2h-0.7l-1.5-2.1h-0.1V85.4z
	 M107.9,82.8c0.6,0,1.4-0.1,1.4-0.9c0-0.8-0.8-0.9-1.4-0.9V82.8z"/>
<path fill="#FFFFFF" d="M112.9,85.4h-0.5V81h-1.2v-0.5h2.9V81h-1.2V85.4z"/>
<path fill="#FFFFFF" d="M58.5,79.5c0,0.4-0.7,0.4-0.7,0C57.8,79.1,58.5,79.1,58.5,79.5z"/>
<path fill="#FFFFFF" d="M59.8,79.5c0,0.4-0.7,0.4-0.7,0C59.1,79.1,59.8,79.1,59.8,79.5z"/>
</svg>
