<svg version="1.1" id="Ebene_1" xmlns="http://www.w3.org/2000/svg" xmlns:xlink="http://www.w3.org/1999/xlink" x="0px" y="0px"
	 width="102px" height="102px" viewBox="0 0 102 102" style="enable-background:new 0 0 102 102;" xml:space="preserve">
<path style="fill:#F4F2E9;" d="M51,102C22.9,102,0,79.1,0,51S22.9,0,51,0s51,22.9,51,51S79.1,102,51,102z M51,2C24,2,2,24,2,51
	s22,49,49,49s49-22,49-49S78,2,51,2z"/>
<circle style="opacity:0.4;fill:#F4F2E9;enable-background:new    ;" cx="51" cy="51" r="50"/>
<circle style="fill:#FFFFFF;" cx="51" cy="51" r="30"/>
<path d="M94.6,42.2L88.1,36L86,44.7l2.8-0.8c0.4,2.3,0.7,4.7,0.7,7.1c0,5.5-1.1,10.8-3.3,15.7l2.7,1.2c2.4-5.3,3.6-11,3.6-16.9
	c0-2.7-0.3-5.4-0.8-8L94.6,42.2z"/>
<path d="M12.5,51c0-5.2,1-10.2,3-15l-2.8-1.2C10.6,40,9.5,45.4,9.5,51c0,3.1,0.4,6.1,1,9.1L7.6,61l6.7,6l1.9-8.8l-2.8,0.9
	C12.8,56.5,12.5,53.8,12.5,51z"/>
<path d="M36.5,50.2c1.7,0,3.1-0.6,3.1-2.5c0-1.6-1.2-2.7-2.8-2.7c-1.4,0-2.4,0.9-2.6,2.3h-2c0.4-2.6,2-4,4.6-4
	c2.5,0,4.6,1.6,4.6,4.3c0,1.6-0.7,2.8-2,3.6c1.6,0.7,2.2,2.2,2.2,3.9c0,3-2.2,4.7-5.1,4.7c-2.5,0-4.7-1.6-4.8-4.2h1.9
	c0.2,1.6,1.6,2.5,3.1,2.5c1.8,0,3-1.4,3-3.1c0-2-1.4-3.2-3.3-3.1L36.5,50.2L36.5,50.2z M52.3,44.2l-4.2,5.7l0,0
	c0.5-0.2,1-0.4,1.6-0.4c2.6,0,4.6,2.4,4.6,5c0,2.9-2.4,5.2-5.2,5.2c-2.7,0-5.3-2.3-5.3-5.1c0-1.6,0.8-2.9,1.7-4.2l5.4-7.3L52.3,44.2
	z M52.3,54.7c0-2-1.7-3.4-3.4-3.4s-3.4,1.6-3.4,3.3c0,1.8,1.6,3.3,3.4,3.3C50.7,58,52.3,56.5,52.3,54.7z M55.6,51.5
	c0-3.3,1.4-8.3,5.5-8.3s5.5,5,5.5,8.3c0,3.2-1.4,8.3-5.5,8.3S55.6,54.7,55.6,51.5z M57.5,51.5c0,2.2,0.8,6.5,3.6,6.5
	s3.6-4.3,3.6-6.5s-0.8-6.6-3.6-6.6S57.5,49.3,57.5,51.5z M71.4,49.5c-1.7,0-3.1-1.4-3.1-3.1c0-1.7,1.4-3.1,3.1-3.1s3.1,1.4,3.1,3.1
	S73.1,49.5,71.4,49.5z M69.3,46.4c0,1.2,0.9,2.1,2.1,2.1s2.1-0.9,2.1-2.1c0-1.2-0.9-2.1-2.1-2.1C70.2,44.3,69.2,45.2,69.3,46.4z"/>
</svg>