<svg xmlns="http://www.w3.org/2000/svg" viewBox="0 0 1055 380" enable-background="new 0 0 1055 380"><path d="M837.9 48.3c-44-14.4-98.1-12.2-155.3 1.8-85.9-30.8-182-46.6-267-49.9-218.2-8.3-401.3 160.2-415.6 377.7 4.5.3 9-.2 13.5 0 10.9-210 188.3-372.6 400.2-364.5 77.8 3 165.2 16.8 244.7 43.4-125.8 37.3-261.6 127.3-335.2 221.4-50.6 16.2-83.4 53.9-101.4 99.8h13.6c14.8-33.8 38.7-62.7 73.2-79.9-14.9 21.7-35.7 75.2-36.7 79.9 4.1.2 8.2-.2 12.2 0 1.7-7.9 26.2-66 42.1-87.2 3.5-1.2 7-2.3 10.6-3.3 138.5-37.2 271.4-105.6 382.9-89.3-114.2-.3-242.3 64.8-341.8 179.8h18.4c120-126.5 275.7-184.7 398.2-152.7 13.7 8.5 26.9 19.1 39.6 32.1 32.3 32.9 54.6 76.9 67.8 120.6h23.1c3.1-15.5 5-34.5 5.4-49.6.2-5.2.2-10.3 0-15.3 19.3 20 37.7 42.1 54.5 64.9h15c-21.1-29.6-45.2-57.5-70.7-82.2-11.8-111-102.2-186.9-216.5-234.1 49.7-8.4 96.1-7.3 134 6.6 127.1 46.4 197 178.8 197.7 309.6 2.8.1 5.7 0 8.6 0 .9-140.7-76.7-284.4-215.1-329.6zm14.1 204.7c-3.2-3.4-6.5-6.7-9.8-9.8 13 6.6 25.5 14.4 37.2 23.5 9.5 7.3 18.9 15.3 28.2 23.9 1.5 11.4 2.1 23.2 1.7 35.5-.2 5.4-.5 11.3-1.1 17.3-13.2-33.1-31.9-64.8-56.2-90.4zm52.6 20.1c-13.1-11.3-26.4-21.7-39.8-31-22.5-15.6-46.9-27-72.8-34.2-124-61.7-284.5 22.7-452.4 65.7 77.7-92 220.2-177.6 347.2-206.7 108.1 41.5 196.7 108.5 217.8 206.2z" fill="#F9F7F0"/></svg>