<svg xmlns="http://www.w3.org/2000/svg" viewBox="0 0 96 36" enable-background="new 0 0 96 36"><g fill="#fff"><path d="M16.2 10.1l-1.6 2.4c-2-1.8-4.8-2.7-7.3-1.7-2.9 1.1-4.7 4.2-4.5 7.2.2 2.8 2 5.5 4.8 6.4 2.6.9 5.2 0 7.1-1.9l2 2c-1.9 1.5-3.9 2.6-6.4 2.8-3.3.2-6.4-1.2-8.4-3.8-4.1-5.4-1.2-13.9 5.6-15.4 3.2-.7 6.1.2 8.7 2zM24.2 7.9v19.3h-2.9v-19.3h2.9zM62.7 10.1l-1.6 2.4c-2-1.8-4.7-2.7-7.3-1.7-2.9 1.1-4.7 4.2-4.5 7.2.2 2.8 2 5.5 4.8 6.4 2.6.9 5.2 0 7.1-1.9l2 2c-1.9 1.5-3.9 2.6-6.4 2.8-3.3.2-6.4-1.2-8.4-3.8-4.1-5.4-1.2-13.9 5.6-15.4 3.2-.7 6.1.2 8.7 2zM70.9 7.9v16.6h8.3v2.7h-11.2v-19.3h2.9zM95.5 10.7h-9v4.9h7.5v2.9h-7.5v6h9v2.7h-12v-19.3h12v2.8zM44.4 27.2l-5.8-7.7c4.8-2.1 5.1-9.4-.1-11.2-1.4-.5-2.9-.4-4.3-.4h-4.2v19.3h2.9v-16.8c2.3 0 5.7-.3 6.6 2.4 1 3.1-1.9 5-4.5 5.5l6.4 9 3-.1zM22.6 4.8h-.6v-4.3h-1.2v-.5h2.9v.5h-1.2v4.3zM28.4 2v-2h.6v4.8h-.5v-2.3h-2.5v2.4h-.5v-4.9h.5v2h2.4zM31 0h2.5v.5h-2v1.4h1.9v.5h-1.9v1.9h2v.5h-2.5v-4.8zM21.9 34.4l-.6 1.4h-.6l2.2-5.1 2.2 5.1h-.6l-.5-1.4h-2.1zm1.1-2.4l-.8 1.9h1.6l-.8-1.9zM27.6 35.8h-.6v-4.3h-1.2v-.5h2.9v.5h-1.2v4.3zM36.7 35.3v.5h-3.5l2.6-4.3h-2.3v-.5h3.2l-2.6 4.3h2.6zM39 33.9c0 .9.5 1.8 1.6 1.5.8-.2.8-.9.8-1.6v-2.7h.5c0 1.5.6 5.1-1.9 4.9-2.2-.2-1.6-3.4-1.6-4.9h.6v2.8zM44.5 35.8h-.5v-4.8c.7 0 1.6-.1 2.1.4.8.8.2 2.2-.8 2.3l1.5 2.2h-.7l-1.5-2.1h-.1v2zm0-2.6c.6 0 1.4-.1 1.4-.9s-.8-.9-1.4-.9v1.8zM49.1 35.8h-.5v-4.8h.5v4.8zM54.8 32c-1.2-1.2-3.3-.5-3.4 1.2-.1 1.9 2.1 2.8 3.4 1.5v.7c-1.6 1.2-4 0-4-2s2.3-3.2 4-2v.6zM59.9 32.9v-2h.5v4.8h-.5v-2.4h-2.5v2.4h-.5v-4.7h.5v2h2.5zM66.3 34.4l-.6 1.4h-.6l2.2-5.1 2.2 5.1h-.6l-.6-1.4h-2zm1.1-2.4l-.8 1.9h1.6l-.8-1.9zM71.7 35.8h-.5v-4.8h.5v4.8zM74.3 35.8h-.5v-4.8c.7 0 1.6-.1 2.1.4.8.8.2 2.2-.8 2.3l1.5 2.2h-.7l-1.5-2.1h-.1v2zm0-2.6c.6 0 1.4-.1 1.4-.9s-.8-.9-1.4-.9v1.8zM78.8 35.8h-.5v-4.8c.9 0 2.1-.2 2.4.9.5 1.4-.8 1.9-1.9 1.9v2zm0-2.6c.6 0 1.5 0 1.5-.9 0-.8-.8-.9-1.5-.8v1.7zM87.1 33.4c0 1.4-1.1 2.5-2.5 2.5s-2.5-1.1-2.5-2.5 1.1-2.5 2.5-2.5 2.5 1.1 2.5 2.5zm-4.5 0c0 1.1.9 2 2 2s2-.9 2-2-.9-2-2-2-2 .9-2 2zM89.3 35.8h-.5v-4.8c.7 0 1.6-.1 2.1.4.8.8.2 2.2-.8 2.3l1.5 2.2h-.7l-1.5-2.1h-.1v2zm0-2.6c.6 0 1.4-.1 1.4-.9s-.8-.9-1.4-.9v1.8zM94.3 35.8h-.5v-4.3h-1.2v-.5h2.9v.5h-1.2v4.3zM39.9 30c0 .4-.7.4-.7 0 0-.5.7-.5.7 0zM41.2 30c0 .4-.7.4-.7 0 0-.5.7-.5.7 0z"/></g></svg>