<svg version="1.1" id="Ebene_3" xmlns="http://www.w3.org/2000/svg" xmlns:xlink="http://www.w3.org/1999/xlink" x="0px" y="0px"
	 viewBox="0 0 96 36" style="enable-background:new 0 0 96 36;" xml:space="preserve">
<style type="text/css">
	.st0{fill:#FFFFFF;}
</style>
<path class="st0" d="M80.071,31.123c-0.377-0.244-0.798-0.266-1.264-0.266h-0.909v5.032h0.754v-2.106h0.266
	c0.443,0.044,0.865-0.089,1.219-0.355c0.333-0.288,0.51-0.687,0.488-1.108C80.67,31.855,80.448,31.411,80.071,31.123z
	 M79.894,32.298c0,0.532-0.31,0.754-0.975,0.754h-0.244v-1.485h0.089C79.495,31.567,79.894,31.677,79.894,32.298z"/>
<polygon class="st0" points="25.717,31.567 26.869,31.567 26.869,35.867 27.623,35.867 27.623,31.567 28.798,31.567 28.798,30.857 
	25.717,30.857 "/>
<path class="st0" d="M20.618,35.867h0.82l0.576-1.374h1.906l0.576,1.352h0.842l-2.328-5.431L20.618,35.867z M22.968,32.254
	l0.643,1.53h-1.286L22.968,32.254z"/>
<polygon class="st0" points="28.266,1.951 26.027,1.951 26.027,0 25.251,0 25.251,5.032 26.027,5.032 26.027,2.66 28.266,2.66 
	28.266,5.032 29.02,5.032 29.02,0 28.266,0 "/>
<polygon class="st0" points="92.175,30.857 92.175,31.567 93.328,31.567 93.328,35.867 94.103,35.867 94.103,31.567 95.256,31.567 
	95.256,30.857 "/>
<path class="st0" d="M38.64,19.596l0.111-0.044c2.283-1.153,3.547-3.17,3.569-5.675c0.022-3.325-2.416-5.697-6.052-5.919
	l-1.02-0.044h-5.586v19.441h3.081V10.552l0.909-0.022c0.443,0,0.975,0,1.685,0.044c2.505,0.155,3.879,1.286,3.968,3.281
	c0.067,1.995-1.241,3.436-3.813,4.123c-0.2,0.066-0.399,0.111-0.554,0.133l-0.399,0.066l6.539,9.111h0.067h3.059l0.266-0.044
	L38.64,19.596z"/>
<polygon class="st0" points="33.586,4.3 31.635,4.3 31.635,2.638 33.542,2.638 33.542,1.929 31.635,1.929 31.635,0.709 
	33.586,0.709 33.586,0 30.882,0 30.882,5.032 33.586,5.032 "/>
<polygon class="st0" points="79.03,24.384 70.783,24.384 70.783,7.892 67.658,7.892 67.658,27.333 79.03,27.333 "/>
<polygon class="st0" points="95.256,24.384 86.256,24.384 86.256,18.621 93.749,18.621 93.749,15.517 86.256,15.517 86.256,10.84 
	95.256,10.84 95.256,7.892 83.131,7.892 83.131,27.333 95.256,27.333 "/>
<rect x="21.195" y="7.892" class="st0" width="3.126" height="19.441"/>
<path class="st0" d="M14.278,22.943l-0.377,0.333c-0.155,0.133-0.31,0.244-0.466,0.355c-1.219,0.798-2.372,1.175-3.635,1.175
	c-0.488,0-0.975-0.066-1.463-0.177c-1.441-0.333-2.727-1.153-3.658-2.283c-1.175-1.397-1.773-3.148-1.707-4.966
	c0.022-1.33,0.443-2.616,1.197-3.702c1.286-1.906,3.303-3.059,5.409-3.059c0.022,0,0.022,0,0.044,0c1.64,0,3.17,0.576,4.544,1.729
	l0.488,0.421l1.751-2.594l-0.776-0.554l-0.709-0.466c-1.574-0.887-3.347-1.374-5.143-1.374c-0.377,0-0.732,0.022-1.108,0.066
	C6.187,8.113,3.926,9.31,2.33,11.239c-1.485,1.773-2.305,4.012-2.328,6.318c-0.067,3.214,1.241,6.052,3.658,7.98
	c1.773,1.397,3.635,2.039,5.985,2.062c0.089,0,0.177,0,0.266,0c1.685,0,3.325-0.443,4.788-1.264c0.244-0.133,0.51-0.288,0.732-0.466
	l0.709-0.51l0.776-0.621l-2.15-2.195L14.278,22.943z"/>
<polygon class="st0" points="21.892,5.032 22.646,5.032 22.646,0.709 23.82,0.709 23.82,0 20.739,0 20.739,0.709 21.892,0.709 "/>
<polygon class="st0" points="59.566,32.808 57.328,32.808 57.328,30.857 56.574,30.857 56.574,35.867 57.328,35.867 57.328,33.517 
	59.566,33.517 59.566,35.867 60.32,35.867 60.32,30.857 59.566,30.857 "/>
<path class="st0" d="M60.586,22.943l-0.377,0.333c-0.155,0.133-0.31,0.244-0.466,0.355c-1.219,0.798-2.372,1.175-3.635,1.175
	c-0.488,0-0.998-0.066-1.463-0.177c-1.441-0.333-2.727-1.153-3.658-2.283c-1.175-1.397-1.773-3.148-1.707-4.966
	c0.022-1.33,0.443-2.616,1.197-3.702c1.286-1.906,3.303-3.059,5.409-3.059c0.022,0,0.022,0,0.044,0c1.64,0,3.17,0.576,4.544,1.729
	l0.488,0.421l1.751-2.616l-0.798-0.532l-0.709-0.466c-1.574-0.887-3.347-1.374-5.143-1.374c-0.377,0-0.732,0.022-1.108,0.066
	c-2.483,0.266-4.744,1.463-6.34,3.392c-1.485,1.773-2.305,4.012-2.328,6.318c-0.067,3.214,1.241,6.052,3.658,7.98
	c1.773,1.397,3.635,2.039,5.985,2.062c0.089,0,0.155,0,0.244,0c1.685,0,3.347-0.443,4.81-1.264c0.288-0.177,0.532-0.31,0.732-0.466
	l0.709-0.51l0.776-0.621l-2.15-2.195L60.586,22.943z"/>
<path class="st0" d="M86.167,31.522c-0.488-0.488-1.153-0.754-1.84-0.754l0,0c-1.441,0-2.616,1.175-2.594,2.638
	c0,0.709,0.288,1.352,0.776,1.84C82.998,35.734,83.663,36,84.35,36c0,0,0,0,0.022,0c1.441,0,2.616-1.175,2.594-2.638h-0.111
	l0.111-0.022C86.921,32.653,86.655,32.01,86.167,31.522z M86.167,33.318c0,0.488-0.177,0.975-0.532,1.33
	c-0.355,0.355-0.82,0.554-1.308,0.554h-0.022c-0.488,0-0.953-0.177-1.286-0.532c-0.355-0.355-0.554-0.82-0.554-1.308V33.34
	c0.022-1.02,0.842-1.84,1.862-1.862C85.325,31.478,86.167,32.298,86.167,33.318z"/>
<path class="st0" d="M76.037,32.298c0-0.975-0.621-1.441-1.862-1.441h-0.798v5.032h0.754v-2.062l1.397,2.062h0.931l-1.552-2.172
	C75.594,33.584,76.081,32.985,76.037,32.298z M75.283,32.32c0,0.532-0.31,0.754-1.108,0.754h-0.044v-1.507h0.044
	C74.884,31.567,75.283,31.677,75.283,32.32z"/>
<circle class="st0" cx="40.724" cy="29.948" r="0.443"/>
<rect x="70.783" y="30.857" class="st0" width="0.754" height="5.032"/>
<path class="st0" d="M53.227,30.768c-1.441,0-2.594,1.175-2.594,2.594s1.175,2.594,2.594,2.594c0.532,0,1.064-0.177,1.507-0.488
	l0.044-0.022v-0.998l-0.2,0.2c-0.355,0.377-0.842,0.599-1.374,0.599c-0.931-0.067-1.663-0.798-1.729-1.729
	c-0.044-0.51,0.111-0.998,0.443-1.374c0.333-0.377,0.776-0.621,1.264-0.665c0.532,0,1.02,0.222,1.397,0.599l0.2,0.2v-0.998
	l-0.044-0.044C54.313,30.946,53.759,30.768,53.227,30.768z"/>
<path class="st0" d="M64.754,35.867h0.82l0.576-1.352h1.884l0.576,1.352h0.842l-2.328-5.431L64.754,35.867z M67.126,32.254
	l0.643,1.53h-1.286L67.126,32.254z"/>
<path class="st0" d="M41.19,33.894c0,0.355,0,0.709-0.2,0.953c-0.222,0.244-0.532,0.399-0.865,0.399
	c-0.333,0-0.665-0.155-0.887-0.421c-0.2-0.266-0.2-0.621-0.2-0.953l0.022-3.037h-0.754v3.126c0,0.51,0.044,1.02,0.51,1.463
	c0.355,0.333,0.82,0.51,1.308,0.51c0,0,0,0,0.022,0c0.51,0,0.998-0.222,1.352-0.576c0.421-0.421,0.443-0.887,0.443-1.397v-3.126
	H41.19L41.19,33.894z"/>
<polygon class="st0" points="33.409,30.835 33.409,31.567 35.626,31.567 33.01,35.867 36.756,35.867 36.756,35.158 34.273,35.158 
	36.911,30.835 "/>
<rect x="48.305" y="30.857" class="st0" width="0.754" height="5.032"/>
<circle class="st0" cx="39.483" cy="29.948" r="0.443"/>
<path class="st0" d="M91.022,32.298c0-0.975-0.621-1.441-1.862-1.441h-0.798v5.032h0.754v-2.062l1.397,2.062h0.931l-1.552-2.172
	C90.579,33.584,91.066,32.985,91.022,32.298z M90.268,32.32c0,0.532-0.31,0.754-1.108,0.754h-0.044v-1.507h0.044
	C89.869,31.567,90.268,31.677,90.268,32.32z"/>
<path class="st0" d="M46.089,33.273c0.244-0.266,0.355-0.621,0.333-0.975c0-0.975-0.621-1.441-1.862-1.441h-0.798v5.032h0.754
	v-2.062l1.419,2.062h0.931l-1.552-2.172C45.601,33.65,45.867,33.495,46.089,33.273z M45.667,32.32c0,0.532-0.31,0.754-1.108,0.754
	h-0.044v-1.507h0.044C45.268,31.567,45.667,31.677,45.667,32.32z"/>
</svg>